<mxfile host="app.diagrams.net" modified="2023-12-20T05:50:25.844Z" agent="Mozilla/5.0 (X11; Linux x86_64; rv:120.0) Gecko/20100101 Firefox/120.0" etag="v-qW7p1JgaxsJISQbFvk" version="22.1.11" type="device">
  <diagram name="Page-1" id="9tURqvziVy_gY3ZVWwge">
    <mxGraphModel dx="1699" dy="944" grid="1" gridSize="10" guides="1" tooltips="1" connect="1" arrows="1" fold="1" page="1" pageScale="1" pageWidth="1169" pageHeight="1654" math="0" shadow="0">
      <root>
        <mxCell id="0" />
        <mxCell id="1" parent="0" />
        <mxCell id="erKZf0c4HrVMZ40JKQi4-1" value="AWS Step Functions workflow" style="points=[[0,0],[0.25,0],[0.5,0],[0.75,0],[1,0],[1,0.25],[1,0.5],[1,0.75],[1,1],[0.75,1],[0.5,1],[0.25,1],[0,1],[0,0.75],[0,0.5],[0,0.25]];outlineConnect=0;gradientColor=none;html=1;whiteSpace=wrap;fontSize=14;fontStyle=0;container=1;pointerEvents=0;collapsible=0;recursiveResize=0;shape=mxgraph.aws4.group;grIcon=mxgraph.aws4.group_aws_step_functions_workflow;strokeColor=#CD2264;fillColor=none;verticalAlign=top;align=left;spacingLeft=30;fontColor=#CD2264;dashed=0;movable=1;resizable=1;rotatable=1;deletable=1;editable=1;locked=0;connectable=1;strokeWidth=2;" vertex="1" parent="1">
          <mxGeometry x="206" y="287" width="760" height="1080" as="geometry" />
        </mxCell>
        <mxCell id="erKZf0c4HrVMZ40JKQi4-10" style="edgeStyle=orthogonalEdgeStyle;rounded=0;orthogonalLoop=1;jettySize=auto;html=1;strokeWidth=2;fontSize=14;" edge="1" parent="erKZf0c4HrVMZ40JKQi4-1" source="erKZf0c4HrVMZ40JKQi4-2" target="erKZf0c4HrVMZ40JKQi4-9">
          <mxGeometry relative="1" as="geometry" />
        </mxCell>
        <mxCell id="erKZf0c4HrVMZ40JKQi4-2" value="" style="outlineConnect=0;dashed=0;verticalLabelPosition=bottom;verticalAlign=top;align=center;html=1;shape=mxgraph.aws3.lambda_function;fillColor=#F58534;gradientColor=none;strokeWidth=2;fontSize=14;" vertex="1" parent="erKZf0c4HrVMZ40JKQi4-1">
          <mxGeometry x="345" y="50" width="69" height="72" as="geometry" />
        </mxCell>
        <mxCell id="erKZf0c4HrVMZ40JKQi4-7" value="Raw data" style="text;html=1;align=center;verticalAlign=middle;resizable=0;points=[];autosize=1;strokeColor=none;fillColor=none;strokeWidth=2;fontSize=14;" vertex="1" parent="erKZf0c4HrVMZ40JKQi4-1">
          <mxGeometry x="120" y="330" width="80" height="30" as="geometry" />
        </mxCell>
        <mxCell id="erKZf0c4HrVMZ40JKQi4-8" value="&lt;div style=&quot;font-size: 14px;&quot;&gt;&lt;i style=&quot;font-size: 14px;&quot;&gt;LoadIngestionTriggers&lt;/i&gt;&lt;/div&gt;" style="text;html=1;align=center;verticalAlign=middle;resizable=0;points=[];autosize=1;strokeColor=none;fillColor=none;strokeWidth=2;fontSize=14;" vertex="1" parent="erKZf0c4HrVMZ40JKQi4-1">
          <mxGeometry x="404" y="71" width="160" height="30" as="geometry" />
        </mxCell>
        <mxCell id="erKZf0c4HrVMZ40JKQi4-13" style="edgeStyle=orthogonalEdgeStyle;shape=connector;rounded=0;orthogonalLoop=1;jettySize=auto;html=1;labelBackgroundColor=default;strokeColor=default;strokeWidth=2;align=center;verticalAlign=middle;fontFamily=Helvetica;fontSize=14;fontColor=default;endArrow=classic;" edge="1" parent="erKZf0c4HrVMZ40JKQi4-1" source="erKZf0c4HrVMZ40JKQi4-9" target="erKZf0c4HrVMZ40JKQi4-11">
          <mxGeometry relative="1" as="geometry" />
        </mxCell>
        <mxCell id="erKZf0c4HrVMZ40JKQi4-9" value="Map" style="shape=parallelogram;perimeter=parallelogramPerimeter;whiteSpace=wrap;html=1;fixedSize=1;aspect=fixed;strokeWidth=2;fontSize=14;" vertex="1" parent="erKZf0c4HrVMZ40JKQi4-1">
          <mxGeometry x="330" y="200" width="100" height="50" as="geometry" />
        </mxCell>
        <mxCell id="erKZf0c4HrVMZ40JKQi4-17" style="edgeStyle=orthogonalEdgeStyle;shape=connector;rounded=0;orthogonalLoop=1;jettySize=auto;html=1;entryX=0.5;entryY=0;entryDx=0;entryDy=0;labelBackgroundColor=default;strokeColor=default;strokeWidth=2;align=center;verticalAlign=middle;fontFamily=Helvetica;fontSize=14;fontColor=default;endArrow=classic;" edge="1" parent="erKZf0c4HrVMZ40JKQi4-1" source="erKZf0c4HrVMZ40JKQi4-11" target="erKZf0c4HrVMZ40JKQi4-16">
          <mxGeometry relative="1" as="geometry" />
        </mxCell>
        <mxCell id="erKZf0c4HrVMZ40JKQi4-11" value="" style="outlineConnect=0;dashed=0;verticalLabelPosition=bottom;verticalAlign=top;align=center;html=1;shape=mxgraph.aws3.lambda_function;fillColor=#F58534;gradientColor=none;strokeWidth=2;fontSize=14;" vertex="1" parent="erKZf0c4HrVMZ40JKQi4-1">
          <mxGeometry x="345" y="330" width="69" height="72" as="geometry" />
        </mxCell>
        <mxCell id="erKZf0c4HrVMZ40JKQi4-14" value="Load raw data" style="text;html=1;align=center;verticalAlign=middle;resizable=0;points=[];autosize=1;strokeColor=none;fillColor=none;strokeWidth=2;fontSize=14;" vertex="1" parent="erKZf0c4HrVMZ40JKQi4-1">
          <mxGeometry x="409" y="351" width="110" height="30" as="geometry" />
        </mxCell>
        <mxCell id="erKZf0c4HrVMZ40JKQi4-16" value="Map" style="shape=parallelogram;perimeter=parallelogramPerimeter;whiteSpace=wrap;html=1;fixedSize=1;aspect=fixed;strokeWidth=2;fontSize=14;" vertex="1" parent="erKZf0c4HrVMZ40JKQi4-1">
          <mxGeometry x="330" y="480" width="100" height="50" as="geometry" />
        </mxCell>
        <mxCell id="erKZf0c4HrVMZ40JKQi4-26" style="edgeStyle=orthogonalEdgeStyle;shape=connector;rounded=0;orthogonalLoop=1;jettySize=auto;html=1;labelBackgroundColor=default;strokeColor=default;strokeWidth=2;align=center;verticalAlign=middle;fontFamily=Helvetica;fontSize=14;fontColor=default;endArrow=classic;" edge="1" parent="erKZf0c4HrVMZ40JKQi4-1" source="erKZf0c4HrVMZ40JKQi4-18" target="erKZf0c4HrVMZ40JKQi4-24">
          <mxGeometry relative="1" as="geometry" />
        </mxCell>
        <mxCell id="erKZf0c4HrVMZ40JKQi4-43" style="edgeStyle=orthogonalEdgeStyle;shape=connector;rounded=0;orthogonalLoop=1;jettySize=auto;html=1;labelBackgroundColor=default;strokeColor=default;strokeWidth=2;align=center;verticalAlign=middle;fontFamily=Helvetica;fontSize=14;fontColor=default;endArrow=classic;" edge="1" parent="erKZf0c4HrVMZ40JKQi4-1" source="erKZf0c4HrVMZ40JKQi4-18" target="erKZf0c4HrVMZ40JKQi4-20">
          <mxGeometry relative="1" as="geometry" />
        </mxCell>
        <mxCell id="erKZf0c4HrVMZ40JKQi4-18" value="" style="sketch=0;points=[[0,0,0],[0.25,0,0],[0.5,0,0],[0.75,0,0],[1,0,0],[0,1,0],[0.25,1,0],[0.5,1,0],[0.75,1,0],[1,1,0],[0,0.25,0],[0,0.5,0],[0,0.75,0],[1,0.25,0],[1,0.5,0],[1,0.75,0]];outlineConnect=0;fontColor=#232F3E;fillColor=#8C4FFF;strokeColor=#ffffff;dashed=0;verticalLabelPosition=bottom;verticalAlign=top;align=center;html=1;fontSize=14;fontStyle=0;aspect=fixed;shape=mxgraph.aws4.resourceIcon;resIcon=mxgraph.aws4.glue;fontFamily=Helvetica;strokeWidth=2;" vertex="1" parent="erKZf0c4HrVMZ40JKQi4-1">
          <mxGeometry x="341" y="600" width="78" height="78" as="geometry" />
        </mxCell>
        <mxCell id="erKZf0c4HrVMZ40JKQi4-19" style="edgeStyle=orthogonalEdgeStyle;shape=connector;rounded=0;orthogonalLoop=1;jettySize=auto;html=1;entryX=0.5;entryY=0;entryDx=0;entryDy=0;entryPerimeter=0;labelBackgroundColor=default;strokeColor=default;strokeWidth=2;align=center;verticalAlign=middle;fontFamily=Helvetica;fontSize=14;fontColor=default;endArrow=classic;" edge="1" parent="erKZf0c4HrVMZ40JKQi4-1" source="erKZf0c4HrVMZ40JKQi4-16" target="erKZf0c4HrVMZ40JKQi4-18">
          <mxGeometry relative="1" as="geometry" />
        </mxCell>
        <mxCell id="erKZf0c4HrVMZ40JKQi4-20" value="" style="sketch=0;points=[[0,0,0],[0.25,0,0],[0.5,0,0],[0.75,0,0],[1,0,0],[0,1,0],[0.25,1,0],[0.5,1,0],[0.75,1,0],[1,1,0],[0,0.25,0],[0,0.5,0],[0,0.75,0],[1,0.25,0],[1,0.5,0],[1,0.75,0]];outlineConnect=0;fontColor=#232F3E;fillColor=#8C4FFF;strokeColor=#ffffff;dashed=0;verticalLabelPosition=bottom;verticalAlign=top;align=center;html=1;fontSize=14;fontStyle=0;aspect=fixed;shape=mxgraph.aws4.resourceIcon;resIcon=mxgraph.aws4.athena;fontFamily=Helvetica;strokeWidth=2;" vertex="1" parent="erKZf0c4HrVMZ40JKQi4-1">
          <mxGeometry x="535" y="733" width="78" height="78" as="geometry" />
        </mxCell>
        <mxCell id="erKZf0c4HrVMZ40JKQi4-24" value="Map" style="shape=parallelogram;perimeter=parallelogramPerimeter;whiteSpace=wrap;html=1;fixedSize=1;aspect=fixed;strokeWidth=2;fontSize=14;" vertex="1" parent="erKZf0c4HrVMZ40JKQi4-1">
          <mxGeometry x="330" y="747" width="100" height="50" as="geometry" />
        </mxCell>
        <mxCell id="erKZf0c4HrVMZ40JKQi4-29" value="Transform and&lt;br style=&quot;font-size: 14px;&quot;&gt;write to refined layer" style="text;html=1;align=center;verticalAlign=middle;resizable=0;points=[];autosize=1;strokeColor=none;fillColor=none;strokeWidth=2;fontSize=14;" vertex="1" parent="erKZf0c4HrVMZ40JKQi4-1">
          <mxGeometry x="414" y="565" width="150" height="50" as="geometry" />
        </mxCell>
        <mxCell id="erKZf0c4HrVMZ40JKQi4-32" style="edgeStyle=orthogonalEdgeStyle;shape=connector;rounded=0;orthogonalLoop=1;jettySize=auto;html=1;labelBackgroundColor=default;strokeColor=default;strokeWidth=2;align=center;verticalAlign=middle;fontFamily=Helvetica;fontSize=14;fontColor=default;endArrow=classic;startArrow=classic;startFill=1;" edge="1" parent="erKZf0c4HrVMZ40JKQi4-1" source="erKZf0c4HrVMZ40JKQi4-30" target="erKZf0c4HrVMZ40JKQi4-20">
          <mxGeometry relative="1" as="geometry" />
        </mxCell>
        <mxCell id="erKZf0c4HrVMZ40JKQi4-30" value="" style="sketch=0;points=[[0,0,0],[0.25,0,0],[0.5,0,0],[0.75,0,0],[1,0,0],[0,1,0],[0.25,1,0],[0.5,1,0],[0.75,1,0],[1,1,0],[0,0.25,0],[0,0.5,0],[0,0.75,0],[1,0.25,0],[1,0.5,0],[1,0.75,0]];outlineConnect=0;fontColor=#232F3E;fillColor=#8C4FFF;strokeColor=#ffffff;dashed=0;verticalLabelPosition=bottom;verticalAlign=top;align=center;html=1;fontSize=14;fontStyle=0;aspect=fixed;shape=mxgraph.aws4.resourceIcon;resIcon=mxgraph.aws4.glue;fontFamily=Helvetica;strokeWidth=2;" vertex="1" parent="erKZf0c4HrVMZ40JKQi4-1">
          <mxGeometry x="341" y="870" width="78" height="78" as="geometry" />
        </mxCell>
        <mxCell id="erKZf0c4HrVMZ40JKQi4-31" style="edgeStyle=orthogonalEdgeStyle;shape=connector;rounded=0;orthogonalLoop=1;jettySize=auto;html=1;entryX=0.5;entryY=0;entryDx=0;entryDy=0;entryPerimeter=0;labelBackgroundColor=default;strokeColor=default;strokeWidth=2;align=center;verticalAlign=middle;fontFamily=Helvetica;fontSize=14;fontColor=default;endArrow=classic;" edge="1" parent="erKZf0c4HrVMZ40JKQi4-1" source="erKZf0c4HrVMZ40JKQi4-24" target="erKZf0c4HrVMZ40JKQi4-30">
          <mxGeometry relative="1" as="geometry" />
        </mxCell>
        <mxCell id="erKZf0c4HrVMZ40JKQi4-33" value="Transform and&lt;br style=&quot;font-size: 14px;&quot;&gt;write to analytics layer" style="text;html=1;align=center;verticalAlign=middle;resizable=0;points=[];autosize=1;strokeColor=none;fillColor=none;strokeWidth=2;fontSize=14;" vertex="1" parent="erKZf0c4HrVMZ40JKQi4-1">
          <mxGeometry x="181" y="845" width="160" height="50" as="geometry" />
        </mxCell>
        <mxCell id="erKZf0c4HrVMZ40JKQi4-34" value="Configuration files" style="text;html=1;align=center;verticalAlign=middle;resizable=0;points=[];autosize=1;strokeColor=none;fillColor=none;strokeWidth=2;fontSize=14;" vertex="1" parent="erKZf0c4HrVMZ40JKQi4-1">
          <mxGeometry x="80" y="60" width="140" height="30" as="geometry" />
        </mxCell>
        <mxCell id="erKZf0c4HrVMZ40JKQi4-36" value="Raw data" style="text;html=1;align=center;verticalAlign=middle;resizable=0;points=[];autosize=1;strokeColor=none;fillColor=none;strokeWidth=2;fontSize=14;" vertex="1" parent="erKZf0c4HrVMZ40JKQi4-1">
          <mxGeometry x="120" y="610" width="80" height="30" as="geometry" />
        </mxCell>
        <mxCell id="erKZf0c4HrVMZ40JKQi4-37" value="&lt;i style=&quot;font-size: 14px;&quot;&gt;TransformEngine&lt;/i&gt;" style="text;html=1;align=center;verticalAlign=middle;resizable=0;points=[];autosize=1;strokeColor=none;fillColor=none;strokeWidth=2;fontSize=14;" vertex="1" parent="erKZf0c4HrVMZ40JKQi4-1">
          <mxGeometry x="404" y="670" width="130" height="30" as="geometry" />
        </mxCell>
        <mxCell id="erKZf0c4HrVMZ40JKQi4-38" value="&lt;i style=&quot;font-size: 14px;&quot;&gt;TransformEngine&lt;/i&gt;" style="text;html=1;align=center;verticalAlign=middle;resizable=0;points=[];autosize=1;strokeColor=none;fillColor=none;strokeWidth=2;fontSize=14;" vertex="1" parent="erKZf0c4HrVMZ40JKQi4-1">
          <mxGeometry x="206" y="930" width="130" height="30" as="geometry" />
        </mxCell>
        <mxCell id="erKZf0c4HrVMZ40JKQi4-44" value="&lt;div style=&quot;font-size: 14px;&quot;&gt;Apache Iceberg tables&lt;/div&gt;" style="text;html=1;align=center;verticalAlign=middle;resizable=0;points=[];autosize=1;strokeColor=none;fillColor=none;strokeWidth=2;fontSize=14;" vertex="1" parent="erKZf0c4HrVMZ40JKQi4-1">
          <mxGeometry x="598" y="715" width="160" height="30" as="geometry" />
        </mxCell>
        <mxCell id="erKZf0c4HrVMZ40JKQi4-6" style="edgeStyle=orthogonalEdgeStyle;rounded=0;orthogonalLoop=1;jettySize=auto;html=1;strokeWidth=2;fontSize=14;" edge="1" parent="1" source="erKZf0c4HrVMZ40JKQi4-3" target="erKZf0c4HrVMZ40JKQi4-2">
          <mxGeometry relative="1" as="geometry">
            <Array as="points">
              <mxPoint x="100" y="373" />
            </Array>
          </mxGeometry>
        </mxCell>
        <mxCell id="erKZf0c4HrVMZ40JKQi4-3" value="" style="sketch=0;points=[[0,0,0],[0.25,0,0],[0.5,0,0],[0.75,0,0],[1,0,0],[0,1,0],[0.25,1,0],[0.5,1,0],[0.75,1,0],[1,1,0],[0,0.25,0],[0,0.5,0],[0,0.75,0],[1,0.25,0],[1,0.5,0],[1,0.75,0]];outlineConnect=0;fontColor=#232F3E;fillColor=#7AA116;strokeColor=#ffffff;dashed=0;verticalLabelPosition=bottom;verticalAlign=top;align=center;html=1;fontSize=14;fontStyle=0;aspect=fixed;shape=mxgraph.aws4.resourceIcon;resIcon=mxgraph.aws4.s3;strokeWidth=2;" vertex="1" parent="1">
          <mxGeometry x="61" y="614" width="78" height="78" as="geometry" />
        </mxCell>
        <mxCell id="erKZf0c4HrVMZ40JKQi4-15" style="edgeStyle=orthogonalEdgeStyle;shape=connector;rounded=0;orthogonalLoop=1;jettySize=auto;html=1;entryX=1;entryY=0.5;entryDx=0;entryDy=0;entryPerimeter=0;labelBackgroundColor=default;strokeColor=default;strokeWidth=2;align=center;verticalAlign=middle;fontFamily=Helvetica;fontSize=14;fontColor=default;endArrow=classic;" edge="1" parent="1" source="erKZf0c4HrVMZ40JKQi4-11" target="erKZf0c4HrVMZ40JKQi4-3">
          <mxGeometry relative="1" as="geometry" />
        </mxCell>
        <mxCell id="erKZf0c4HrVMZ40JKQi4-23" style="edgeStyle=orthogonalEdgeStyle;shape=connector;rounded=0;orthogonalLoop=1;jettySize=auto;html=1;entryX=0;entryY=0.5;entryDx=0;entryDy=0;entryPerimeter=0;labelBackgroundColor=default;strokeColor=default;strokeWidth=2;align=center;verticalAlign=middle;fontFamily=Helvetica;fontSize=14;fontColor=default;endArrow=classic;" edge="1" parent="1" source="erKZf0c4HrVMZ40JKQi4-3" target="erKZf0c4HrVMZ40JKQi4-18">
          <mxGeometry relative="1" as="geometry">
            <Array as="points">
              <mxPoint x="101" y="926" />
            </Array>
          </mxGeometry>
        </mxCell>
        <mxCell id="erKZf0c4HrVMZ40JKQi4-40" value="" style="sketch=0;points=[[0,0,0],[0.25,0,0],[0.5,0,0],[0.75,0,0],[1,0,0],[0,1,0],[0.25,1,0],[0.5,1,0],[0.75,1,0],[1,1,0],[0,0.25,0],[0,0.5,0],[0,0.75,0],[1,0.25,0],[1,0.5,0],[1,0.75,0]];outlineConnect=0;fontColor=#232F3E;fillColor=#8C4FFF;strokeColor=#ffffff;dashed=0;verticalLabelPosition=bottom;verticalAlign=top;align=center;html=1;fontSize=14;fontStyle=0;aspect=fixed;shape=mxgraph.aws4.resourceIcon;resIcon=mxgraph.aws4.quicksight;fontFamily=Helvetica;strokeWidth=2;" vertex="1" parent="1">
          <mxGeometry x="1061" y="1020" width="78" height="78" as="geometry" />
        </mxCell>
        <mxCell id="erKZf0c4HrVMZ40JKQi4-41" style="edgeStyle=orthogonalEdgeStyle;shape=connector;rounded=0;orthogonalLoop=1;jettySize=auto;html=1;entryX=0;entryY=0.5;entryDx=0;entryDy=0;entryPerimeter=0;labelBackgroundColor=default;strokeColor=default;strokeWidth=2;align=center;verticalAlign=middle;fontFamily=Helvetica;fontSize=14;fontColor=default;endArrow=classic;" edge="1" parent="1" source="erKZf0c4HrVMZ40JKQi4-20" target="erKZf0c4HrVMZ40JKQi4-40">
          <mxGeometry relative="1" as="geometry" />
        </mxCell>
        <mxCell id="erKZf0c4HrVMZ40JKQi4-42" value="&lt;div style=&quot;font-size: 14px;&quot;&gt;&lt;br style=&quot;font-size: 14px;&quot;&gt;&lt;/div&gt;" style="text;html=1;align=center;verticalAlign=middle;resizable=0;points=[];autosize=1;strokeColor=none;fillColor=none;fontStyle=2;strokeWidth=2;fontSize=14;" vertex="1" parent="1">
          <mxGeometry x="31" y="697" width="20" height="30" as="geometry" />
        </mxCell>
        <mxCell id="erKZf0c4HrVMZ40JKQi4-45" value="&lt;div style=&quot;font-size: 14px;&quot;&gt;Main storage&lt;/div&gt;&lt;div style=&quot;font-size: 14px;&quot;&gt;bucket&lt;/div&gt;" style="text;html=1;align=center;verticalAlign=middle;resizable=0;points=[];autosize=1;strokeColor=none;fillColor=none;strokeWidth=2;fontSize=14;" vertex="1" parent="1">
          <mxGeometry x="106" y="569" width="100" height="50" as="geometry" />
        </mxCell>
        <mxCell id="erKZf0c4HrVMZ40JKQi4-46" value="&lt;div style=&quot;font-size: 14px;&quot;&gt;Results dashboard&lt;br style=&quot;font-size: 14px;&quot;&gt;&lt;/div&gt;" style="text;html=1;align=center;verticalAlign=middle;resizable=0;points=[];autosize=1;strokeColor=none;fillColor=none;strokeWidth=2;fontSize=14;" vertex="1" parent="1">
          <mxGeometry x="1029" y="980" width="140" height="30" as="geometry" />
        </mxCell>
      </root>
    </mxGraphModel>
  </diagram>
</mxfile>
